# xmcd CD database file
#
# Track frame offsets:
#	150
#	16680
#	35802
#	68409
#	91105
#	113271
#	130244
#
# Disc length: 1942 seconds
#
# Revision: 0
# Processed by: cddbd v1.5.1PL2 Copyright (c) Steve Scherf et al.
# Submitted via: CDex 1.51
#
DISCID=46079407
DTITLE=Tsuji Kosuke - enda safari
DYEAR=2006
DGENRE=Jazz
TTITLE0=enda safari 01
TTITLE1=enda safari 02
TTITLE2=enda safari 03 guest - Goma
TTITLE3=enda safari 04
TTITLE4=enda safari 05 guest - Gonttti
TTITLE5=enda safari 06
TTITLE6=enda safari 07 live recording at Kenya
EXTD=YEAR: 2006
EXTT0=
EXTT1=
EXTT2=
EXTT3=
EXTT4=
EXTT5=
EXTT6=
PLAYORDER=
